Coordinates
version=1
nRows=22
nColumns=24
inDegrees=yes

Units are S.I. units (second, meters, Newtons, ...)
Angles are in degrees.

endheader
time	pelvis_tilt	pelvis_list	pelvis_rotation	pelvis_tx	pelvis_ty	pelvis_tz	hip_flexion_r	hip_adduction_r	hip_rotation_r	knee_angle_r	ankle_angle_r	subtalar_angle_r	mtp_angle_r	hip_flexion_l	hip_adduction_l	hip_rotation_l	knee_angle_l	ankle_angle_l	subtalar_angle_l	mtp_angle_l	lumbar_extension	lumbar_bending	lumbar_rotation
      0.72550000	      0.88096904	     -4.82997839	      8.99396370	     -0.46906060	      1.04449828	      0.33375437	      7.39233084	      9.19193603	     -6.26999098	    -10.73614855	     -1.36285095	    -11.22967361	      4.70767933	     15.00482938	     -6.40391135	     -0.42915809	    -63.64885122	     -4.87651706	     -5.86101688	     -1.84724057	     -6.51942578	      3.52227573	     -3.27595807
      0.72966667	      0.89137137	     -4.70356245	      9.01743958	     -0.46384411	      1.04525368	      0.33391638	      6.90163615	      9.12964881	     -6.26232453	    -10.45843906	     -1.22640416	    -11.10874329	      4.69330661	     15.49320985	     -6.24320348	     -0.45146894	    -63.31029038	     -4.12700380	     -6.00784462	     -1.96313195	     -6.57918214	      3.35241550	     -3.20580239
      0.73383333	      0.88715710	     -4.58078057	      9.03343195	     -0.45861314	      1.04597715	      0.33406823	      6.42606044	      9.06846761	     -6.26170538	    -10.17667237	     -1.12740073	    -11.02894917	      4.68673591	     15.97619085	     -6.07948535	     -0.48537671	    -62.89671839	     -3.47141354	     -6.26747042	     -2.00600531	     -6.60493343	      3.19329935	     -3.16899255
      0.73800000	      0.89438179	     -4.44511120	      9.03978041	     -0.45340511	      1.04669631	      0.33423777	      5.93822598	      8.99682528	     -6.24575780	     -9.89930524	     -1.00864445	    -10.92488447	      4.67779038	     16.42490549	     -5.90552018	     -0.53142827	    -62.41485714	     -2.83662820	     -6.48256179	     -2.05997843	     -6.66605169	      3.00904062	     -3.11269712
      0.74216667	      0.96280765	     -4.29122713	      9.04151786	     -0.44821920	      1.04749225	      0.33441453	      5.37768797	      8.91663137	     -6.21255344	     -9.61622277	     -0.84608393	    -10.75296226	      4.65221744	     16.77758800	     -5.71865488	     -0.57900738	    -61.85042361	     -2.26150989	     -6.66638479	     -2.19861610	     -6.83634741	      2.81429903	     -2.99221402
      0.74633333	      0.96220253	     -4.16173133	      9.03334540	     -0.44301319	      1.04813998	      0.33459008	      4.90327765	      8.84984077	     -6.20301011	     -9.34463694	     -0.74263969	    -10.66279246	      4.63914243	     17.19552221	     -5.54883592	     -0.64282582	    -61.23803364	     -1.72820074	     -6.94419635	     -2.25684613	     -6.87144758	      2.62897189	     -2.94726071
      0.75050000	      1.05114831	     -3.98826856	      9.01414527	     -0.43782499	      1.04893876	      0.33477308	      4.31686904	      8.75266440	     -6.15160386	     -9.06213290	     -0.57716389	    -10.49946150	      4.60325109	     17.46947655	     -5.34031531	     -0.71119775	    -60.51920283	     -1.29965561	     -7.20704137	     -2.40751580	     -7.05720688	      2.42734490	     -2.82087652
      0.75466667	      1.08993016	     -3.83993319	      8.98641568	     -0.43263800	      1.04959129	      0.33496460	      3.79817737	      8.67177715	     -6.12243763	     -8.79453433	     -0.42789192	    -10.35983768	      4.55284010	     17.79185905	     -5.15621221	     -0.79322339	    -59.76334422	     -0.87894229	     -7.49668021	     -2.58952802	     -7.16503692	      2.22219928	     -2.71026995
      0.75883333	      1.14358756	     -3.67671603	      8.94719935	     -0.42745952	      1.05025935	      0.33515535	      3.26312062	      8.57773438	     -6.07202675	     -8.53178942	     -0.28788379	    -10.23317134	      4.50008751	     18.06592493	     -4.95342147	     -0.87793149	    -58.92876002	     -0.49964471	     -7.78767098	     -2.75902065	     -7.29701876	      2.01525366	     -2.61454574
      0.76300000	      1.18516454	     -3.52812124	      8.90110866	     -0.42229224	      1.05084994	      0.33535596	      2.74845031	      8.49728693	     -6.01691156	     -8.27706208	     -0.14707081	    -10.11680150	      4.43855537	     18.33904238	     -4.76556391	     -0.96379714	    -58.04337949	     -0.14860925	     -8.08140108	     -2.93509228	     -7.41527413	      1.82077289	     -2.50688873
      0.76716667	      1.22971825	     -3.35683519	      8.83137724	     -0.41714920	      1.05144077	      0.33556975	      2.24094794	      8.39021093	     -5.94515874	     -8.04932576	     -0.01608275	    -10.01768065	      4.39208268	     18.57203681	     -4.55371572	     -1.06875982	    -57.07785261	      0.18701490	     -8.36263103	     -3.05551905	     -7.55204267	      1.61117861	     -2.42235106
      0.77133333	      1.30460277	     -3.20144950	      8.77091365	     -0.41198223	      1.05201590	      0.33577717	      1.68618049	      8.30690318	     -5.86587555	     -7.78662568	      0.14082152	     -9.89710086	      4.32559489	     18.75668905	     -4.36436480	     -1.16409667	    -56.05797446	      0.45426872	     -8.66788196	     -3.21440040	     -7.70719178	      1.40483455	     -2.28978956
      0.77550000	      1.33428517	     -3.05040598	      8.69109491	     -0.40685609	      1.05248470	      0.33598000	      1.20769665	      8.21482153	     -5.79067863	     -7.58116323	      0.34512572	     -9.75131228	      3.11870252	     18.97155153	     -4.16616395	     -1.26049485	    -54.99179613	      0.79735971	     -8.93533520	     -5.71864669	     -7.82282253	      1.20899557	     -2.15327179
      0.77966667	      1.38807709	     -2.89218399	      8.59610896	     -0.40171119	      1.05295692	      0.33622078	      0.69109081	      8.12275120	     -5.66795521	     -7.34695615	      0.47596650	     -9.67996268	      3.11681032	     19.12687532	     -3.97446120	     -1.37665595	    -53.84424229	      1.02333826	     -9.20201497	     -5.72911008	     -7.96246424	      1.00306284	     -2.04287120
      0.78383333	      1.40309488	     -2.73785194	      8.48397246	     -0.39658402	      1.05333192	      0.33646399	      0.23693037	      8.02334095	     -5.54670813	     -7.15368464	      0.61583023	     -9.61634289	      3.11038174	     19.30054077	     -3.77996076	     -1.49762163	    -52.63887909	      1.25175597	     -9.45765583	     -5.74117498	     -8.06486443	      0.79097221	     -1.94714252
      0.78800000	      1.48031249	     -2.60039514	      8.38367175	     -0.39145483	      1.05374287	      0.33667768	     -0.29763713	      7.95110363	     -5.42811382	     -6.92384067	      0.77313337	     -9.52901063	      3.09171847	     19.38978953	     -3.60941968	     -1.60271361	    -51.37512441	      1.40793796	     -9.74847566	     -5.76760030	     -8.22345964	      0.61614191	     -1.77922768
      0.79216667	      1.53281514	     -2.45799818	      8.26166938	     -0.38633408	      1.05409296	      0.33691284	     -0.79258919	      7.86630253	     -5.29307068	     -6.72159770	      0.92559547	     -9.45679907	      3.06527962	     19.47533919	     -3.43278442	     -1.72156135	    -50.04498351	      1.56084498	    -10.00918143	     -5.79995955	     -8.35777428	      0.42792351	     -1.63133911
      0.79633333	      1.58131025	     -2.32159875	      8.13200227	     -0.38123083	      1.05438356	      0.33713670	     -1.27575674	      7.78322358	     -5.14622836	     -6.53005608	      1.07183812	     -9.38323229	      3.02451286	     19.54289934	     -3.25700014	     -1.83177479	    -48.65723624	      1.69082551	    -10.28033617	     -5.84687007	     -8.50321094	      0.24894017	     -1.46553137
      0.80050000	      1.61934158	     -2.18549049	      7.99132325	     -0.37610301	      1.05462606	      0.33737347	     -1.74460271	      7.69662216	     -4.99821513	     -6.34665264	      1.23508778	     -9.32210524	      2.98080849	     19.59205397	     -3.08499759	     -1.95483981	    -47.20273381	      1.77655896	    -10.53622739	     -5.89935682	     -8.61519516	      0.06502376	     -1.31209715
      0.80466667	      1.62920137	     -2.07275217	      7.84472322	     -0.37098624	      1.05476967	      0.33759568	     -2.17349865	      7.62705112	     -4.83931422	     -6.17335905	      1.39084965	     -9.26750107	      2.92944571	     19.65542206	     -2.93137686	     -2.06961263	    -45.69917916	      1.84039694	    -10.78841770	     -5.96098430	     -8.69597033	     -0.09459141	     -1.15253691
      0.80883333	      1.65943098	     -1.95964099	      7.68958579	     -0.36586044	      1.05490587	      0.33781717	     -2.62328275	      7.55663243	     -4.67791176	     -6.00195767	      1.55045841	     -9.21562795	      2.87707913	     19.66768972	     -2.78274919	     -2.19264486	    -44.13162025	      1.87552177	    -11.03147615	     -6.02675867	     -8.79786693	     -0.25230818	     -0.99569156
      0.81300000	      1.69181698	     -1.84818962	      7.52791872	     -0.36073477	      1.05500844	      0.33802802	     -3.07256855	      7.48390080	     -4.51126770	     -5.83540202	      1.70703737	     -9.16164647	      2.81782949	     19.64814744	     -2.63245126	     -2.31001034	    -42.49703375	      1.86822619	    -11.28500024	     -6.10381934	     -8.90661639	     -0.40226948	     -0.82380679
